<svg xmlns="http://www.w3.org/2000/svg" viewBox="0 0 48 48">
  <path fill="#4CAF50" d="M45 16.2 40 18.95 35 23.7V40h7c1.657 0 3-1.343 3-3V16.2z"/>
  <path fill="#1E88E5" d="M3 16.2 6.614 17.91 13 23.7V40H6c-1.657 0-3-1.343-3-3V16.2z"/>
  <path fill="#E53935" d="M35 11.2 24 19.45 13 11.2 12 17l1 6.7 11 8.25 11-8.25 1-6.7z"/>
  <path fill="#C62828" d="M3 12.298V16.2l10 7.5V11.2L9.876 8.859A4.99 4.99 0 0 0 7.298 8C4.924 8 3 9.924 3 12.298z"/>
  <path fill="#FBC02D" d="M45 12.298V16.2l-10 7.5V11.2l3.124-2.341A4.99 4.99 0 0 1 40.702 8C43.076 8 45 9.924 45 12.298z"/>
</svg>
